Coordinates
version=1
nRows=16
nColumns=33
inDegrees=yes

Units are S.I. units (second, meters, Newtons, ...)
Angles are in degrees.

endheader
time	ground_thorax_rot_x	ground_thorax_rot_y	ground_thorax_rot_z	ground_thorax_tx	ground_thorax_ty	ground_thorax_tz	clav_prot_r	clav_elev_r	scapula_abduction_r	scapula_elevation_r	scapula_upward_rot_r	scapula_winging_r	shoulder_elv_r	plane_of_elev_r	axial_rot_r	elbow_flexion_r	pro_sup_r	wrist_flex_r	wrist_dev_r	clav_prot_l	clav_elev_l	scapula_abduction_l	scapula_elevation_l	scapula_upward_rot_l	scapula_winging_l	shoulder_elv_l	plane_of_elev_l	axial_rot_l	elbow_flexion_l	pro_sup_l	wrist_flex_l	wrist_dev_l
      2.04000000	     20.84045428	     41.56525699	      7.44364417	      0.01661090	      1.01624875	     -0.04567077	    -19.28755605	     32.01383358	    -18.39721802	     23.02286086	     45.00000000	    -10.82281145	     -0.40364373	    -90.00000000	     30.35764530	     70.89611167	     -2.86337039	     41.89231607	    -19.85059591	     19.75852872	     -6.88510866	    -45.00000000	     -0.62857314	      1.16447102	     21.05876615	     23.22446779	    -34.36372183	    -28.01805883	     67.05405429	     22.44552498	     12.56830164	    -17.80774952
      2.05000000	     20.84897440	     41.74031051	      7.53994572	      0.01630325	      1.01562435	     -0.04535830	    -19.20637142	     32.18997973	    -18.47108123	     23.18778657	     45.00000000	    -10.73321164	     -0.12647774	    -90.00000000	     30.08067414	     71.79103261	     -4.46297939	     41.01999988	    -18.15615850	     20.29610269	     -7.34207926	    -45.00000000	     -1.02530539	     -1.30802423	     20.99003177	     24.64800896	    -31.60221429	    -27.97994404	     67.28845714	     21.19448457	     14.31664836	    -16.63720596
      2.06000000	     20.69937803	     41.88201183	      7.61400662	      0.01630914	      1.01598402	     -0.04530238	    -19.24532168	     32.02555521	    -18.32175810	     23.03825088	     45.00000000	    -10.80524612	      0.03365254	    -90.00000000	     29.92063518	     71.91134746	     -4.63916401	     40.99188678	    -18.06913245	     20.30749752	     -7.69048583	    -45.00000000	     -0.74380969	     -1.28430712	     20.85820466	     24.75366581	    -30.91266289	    -27.89689813	     66.77910153	     21.15105988	     14.38092388	    -16.36362711
      2.07000000	     20.67886186	     42.08212681	      7.70876375	      0.01596302	      1.01547278	     -0.04512147	    -19.18924574	     32.15089836	    -18.37997741	     23.15563480	     45.00000000	    -10.73865544	      0.34108119	    -90.00000000	     29.61336614	     72.75294346	     -6.50761650	     39.96213662	    -16.17808715	     20.84498363	     -8.14376190	    -45.00000000	     -1.23149274	     -3.97329782	     20.77803838	     26.14208283	    -27.77120721	    -27.65180077	     66.70715076	     19.90462091	     16.26139707	    -15.21092028
      2.08000000	     20.50177930	     42.17453498	      7.75662377	      0.01602917	      1.01573031	     -0.04521565	    -19.21187448	     31.95598326	    -18.15089068	     22.98077409	     45.00000000	    -10.82056542	      0.50621179	    -90.00000000	     29.44843013	     72.88193542	     -6.68613765	     39.93432058	    -16.09592392	     20.86412469	     -8.51264859	    -45.00000000	     -0.93455121	     -3.95942069	     20.63930549	     26.25889272	    -27.07294174	    -27.51698025	     66.16684185	     19.87913008	     16.30001407	    -14.92581087
      2.09000000	     20.52173308	     42.23285318	      7.61750613	      0.01587975	      1.01461729	     -0.04532563	    -19.12330504	     32.01026136	    -18.03515056	     23.03933552	     45.00000000	    -10.77498035	      0.83235965	    -90.00000000	     29.12223609	     73.86438628	     -8.19026273	     38.91663638	    -14.51568559	     21.25395306	     -8.81789947	    -45.00000000	     -1.36821948	     -6.06497282	     20.57397407	     27.28099958	    -24.24275973	    -27.02675103	     65.98895630	     18.93153836	     17.99130268	    -13.94846449
      2.10000000	     20.24772599	     42.41315965	      7.90092190	      0.01589308	      1.01536980	     -0.04528588	    -19.15056640	     31.80487399	    -17.80553713	     22.85526859	     45.00000000	    -10.85792573	      0.95007117	    -90.00000000	     29.00539717	     73.77031827	     -8.38571697	     38.76269286	    -14.39123937	     21.29190873	     -9.32517048	    -45.00000000	     -0.99049320	     -6.13638288	     20.38824117	     27.43114488	    -23.58885970	    -26.90165344	     65.23884951	     18.92968171	     18.08838315	    -13.62938484
      2.11000000	     20.06294574	     42.85562148	      8.16255188	      0.01540454	      1.01468096	     -0.04508367	    -19.21166582	     31.93740185	    -18.12449346	     22.96427817	     45.00000000	    -10.82690484	      1.29214732	    -90.00000000	     28.67044806	     74.66278604	    -11.22611080	     37.27645236	    -11.96730509	     22.02412076	    -10.00457011	    -45.00000000	     -1.96374049	    -10.72787639	     20.20712202	     29.94128785	    -18.59400173	    -26.55158344	     64.86582274	     17.17332926	     20.73979679	    -12.34719740
      2.12000000	     19.81722998	     42.78324086	      8.35191387	      0.01566388	      1.01452404	     -0.04507872	    -19.13119658	     31.76194595	    -17.70454045	     22.81962014	     45.00000000	    -10.86715550	      1.42023309	    -90.00000000	     28.54690887	     74.94190634	    -11.26238599	     37.34954341	    -11.95842573	     22.03164108	    -10.34980576	    -45.00000000	     -1.65029779	    -10.60591377	     20.07631009	     30.06737733	    -18.19740135	    -26.52868296	     64.29526499	     17.24070100	     20.72641791	    -12.14965696
      2.13000000	     19.79551346	     43.25150891	      8.10698563	      0.01496158	      1.01391617	     -0.04550825	    -19.25274553	     31.61278037	    -17.76299920	     22.67445440	     45.00000000	    -10.95692869	      1.77745057	    -90.00000000	     28.20246561	     75.59387573	    -13.97189726	     35.75313699	    -10.13528795	     22.62029821	    -10.92611049	    -45.00000000	     -2.79218129	    -15.32378040	     19.86695475	     32.36385680	    -12.31153735	    -25.62372077	     63.23190331	     15.72099740	     23.19929201	    -10.88280776
      2.14000000	     19.72877825	     43.94695744	      7.72929381	      0.01428310	      1.01357938	     -0.04563038	    -19.57452042	     31.21749355	    -17.91911437	     22.28927388	     45.00000000	    -11.19422021	      1.90578217	    -90.00000000	     28.10634256	     75.57038090	    -16.52029971	     36.83329057	     -9.48894054	     23.21338753	    -12.23503619	    -45.00000000	     -4.21423667	    -22.37819701	     19.24095018	     37.34882123	     -4.76657136	    -25.69366687	     62.45784875	     14.60034041	     23.45293024	     -9.98802175
      2.15000000	     19.33784917	     43.75737792	      7.84119835	      0.01446382	      1.01366042	     -0.04585894	    -19.52363069	     30.80689119	    -17.26810940	     21.93784273	     45.00000000	    -11.32076336	      2.16636941	    -90.00000000	     27.87883920	     75.89932138	    -16.65915137	     35.53215670	     -9.06261182	     23.23951136	    -12.46126518	    -45.00000000	     -4.09130553	    -22.53654799	     19.15357476	     37.22510568	     -3.92769877	    -24.53419450	     61.51744112	     14.45585670	     24.51380361	     -9.63764671
      2.16000000	     19.13344215	     43.93181422	      8.16098342	      0.01448340	      1.01326515	     -0.04603175	    -19.41849518	     30.82252008	    -17.06313922	     21.96275492	     45.00000000	    -11.28520382	      2.48155795	    -90.00000000	     27.62712975	     76.35230282	    -17.45430652	     33.90009764	     -7.92197261	     23.36264506	    -13.15130356	    -45.00000000	     -4.23770496	    -24.49248468	     18.83512301	     38.45381872	     -1.59072524	    -23.79981639	     60.45963420	     14.02679390	     26.35325565	     -9.33676327
      2.17000000	     19.13794687	     44.01306364	      8.08697788	      0.01468261	      1.01348043	     -0.04644942	    -19.40280333	     30.52359736	    -16.64475511	     21.70639047	     45.00000000	    -11.38182521	      2.83760277	    -90.00000000	     27.36902106	     76.33906853	    -17.68786890	     33.57703611	     -7.85522017	     23.41825060	    -13.71922940	    -45.00000000	     -3.83405132	    -24.62004403	     18.62199546	     38.45169607	     -0.73591298	    -23.44508657	     59.34319917	     14.11182745	     26.51070969	     -8.94673445
      2.18000000	     18.89223085	     44.23781034	      8.33722627	      0.01446751	      1.01265881	     -0.04651961	    -19.35232460	     30.58498938	    -16.61749755	     21.76461922	     45.00000000	    -11.34631533	      3.92353755	    -89.74986831	     27.87364551	     77.04986484	    -19.81871696	     31.32563382	     -6.12429590	     23.51970058	    -14.49064754	    -45.00000000	     -4.58580748	    -28.44867116	     18.17334254	     40.95369238	      3.45836480	    -22.16065328	     57.89164442	     13.21879306	     29.15987838	     -8.65747928
      2.19000000	     18.42034798	     44.47107161	      7.94149623	      0.01387291	      1.01029193	     -0.04661340	    -20.10583827	     31.74297920	    -19.77312485	     22.68245102	     45.00000000	    -11.18241219	     15.80872425	    -84.53966194	     41.21703250	     76.28550189	    -25.28880413	     31.67538978	     -5.26589967	     22.44161397	    -16.45876355	    -45.00000000	     -8.88371735	    -45.00000000	     16.12072355	     55.10171237	     18.05655885	    -16.40081778	     55.52103058	     11.88369442	     31.84011932	     -8.32479867
